{
    "asset" : {
        "generator" : "Khronos glTF Blender I/O v3.4.50",
        "version" : "2.0"
    },
    "extensionsUsed" : [
        "KHR_materials_specular",
        "KHR_materials_ior"
    ],
    "scene" : 0,
    "scenes" : [
        {
            "name" : "Scene",
            "nodes" : [
                0,
                1,
                3,
                4,
                6
            ]
        }
    ],
    "nodes" : [
        {
            "name" : "mesh_all1"
        },
        {
            "mesh" : 0,
            "name" : "Text.002",
            "rotation" : [
                0.70710688829422,
                0,
                0,
                0.7071066498756409
            ],
            "scale" : [
                0.2753905951976776,
                0.2753906548023224,
                0.2753906548023224
            ],
            "translation" : [
                -0.003080488881096244,
                0.008223060518503189,
                0.0003689681470859796
            ]
        },
        {
            "mesh" : 1,
            "name" : "arrow_model.001",
            "rotation" : [
                0.70710688829422,
                0,
                0,
                0.7071066498756409
            ],
            "scale" : [
                10.000000953674316,
                10,
                10
            ],
            "translation" : [
                0.10000099241733551,
                0.06995432823896408,
                -36.30618667602539
            ]
        },
        {
            "children" : [
                2
            ],
            "name" : "arrow_root.001",
            "rotation" : [
                0,
                -0.70710688829422,
                -0.7071066498756409,
                5.3385068810030134e-08
            ],
            "scale" : [
                0.01748090796172619,
                0.01748090796172619,
                0.01748090796172619
            ],
            "translation" : [
                -0.0012438846752047539,
                0.5483161211013794,
                6.809612386859953e-05
            ]
        },
        {
            "mesh" : 2,
            "name" : "Text",
            "rotation" : [
                0.7071068286895752,
                0,
                0,
                0.7071067690849304
            ],
            "scale" : [
                0.4272444248199463,
                0.4272444248199463,
                0.4272444248199463
            ],
            "translation" : [
                -0.0030996249988675117,
                0.028661996126174927,
                0.000169688108144328
            ]
        },
        {
            "mesh" : 3,
            "name" : "arrow_model",
            "rotation" : [
                0.70710688829422,
                0,
                0,
                0.7071066498756409
            ],
            "scale" : [
                9.999999046325684,
                9.999999046325684,
                9.999999046325684
            ],
            "translation" : [
                0.10000097006559372,
                0.06995431333780289,
                -36.306182861328125
            ]
        },
        {
            "children" : [
                5
            ],
            "name" : "arrow_root",
            "rotation" : [
                0,
                -0.70710688829422,
                -0.7071066498756409,
                5.3385068810030134e-08
            ],
            "scale" : [
                0.017480909824371338,
                0.017480909824371338,
                0.017480909824371338
            ],
            "translation" : [
                -0.0012438846752047539,
                0.5483161211013794,
                6.809612386859953e-05
            ]
        }
    ],
    "animations" : [
        {
            "channels" : [
                {
                    "sampler" : 0,
                    "target" : {
                        "node" : 2,
                        "path" : "translation"
                    }
                },
                {
                    "sampler" : 1,
                    "target" : {
                        "node" : 2,
                        "path" : "rotation"
                    }
                },
                {
                    "sampler" : 2,
                    "target" : {
                        "node" : 2,
                        "path" : "scale"
                    }
                }
            ],
            "name" : "arrow_modelAction",
            "samplers" : [
                {
                    "input" : 16,
                    "interpolation" : "LINEAR",
                    "output" : 17
                },
                {
                    "input" : 16,
                    "interpolation" : "LINEAR",
                    "output" : 18
                },
                {
                    "input" : 16,
                    "interpolation" : "LINEAR",
                    "output" : 19
                }
            ]
        },
        {
            "channels" : [
                {
                    "sampler" : 0,
                    "target" : {
                        "node" : 5,
                        "path" : "translation"
                    }
                },
                {
                    "sampler" : 1,
                    "target" : {
                        "node" : 5,
                        "path" : "rotation"
                    }
                },
                {
                    "sampler" : 2,
                    "target" : {
                        "node" : 5,
                        "path" : "scale"
                    }
                }
            ],
            "name" : "arrow_modelAction",
            "samplers" : [
                {
                    "input" : 16,
                    "interpolation" : "LINEAR",
                    "output" : 20
                },
                {
                    "input" : 16,
                    "interpolation" : "LINEAR",
                    "output" : 21
                },
                {
                    "input" : 16,
                    "interpolation" : "LINEAR",
                    "output" : 22
                }
            ]
        }
    ],
    "materials" : [
        {
            "doubleSided" : true,
            "emissiveFactor" : [
                1,
                1,
                1
            ],
            "name" : "Material.001",
            "pbrMetallicRoughness" : {
                "baseColorFactor" : [
                    0.779251217842102,
                    0.8131446838378906,
                    1,
                    1
                ],
                "metallicFactor" : 0,
                "roughnessFactor" : 0.4000000059604645
            }
        },
        {
            "doubleSided" : true,
            "emissiveFactor" : [
                0,
                0.27450981736183167,
                0.5686274766921997
            ],
            "name" : "arrow_material.001",
            "pbrMetallicRoughness" : {
                "baseColorFactor" : [
                    0.3490196168422699,
                    0.32156863808631897,
                    1,
                    1
                ],
                "roughnessFactor" : 0.5530382990837097
            }
        },
        {
            "doubleSided" : true,
            "name" : "Material",
            "pbrMetallicRoughness" : {
                "metallicFactor" : 0,
                "roughnessFactor" : 0.4000000059604645
            }
        },
        {
            "doubleSided" : true,
            "emissiveFactor" : [
                0,
                0.27450981736183167,
                0.5686274766921997
            ],
            "extensions" : {
                "KHR_materials_specular" : {
                    "specularColorFactor" : [
                        2.371357614441398,
                        2.371357614441398,
                        2.371357614441398
                    ]
                },
                "KHR_materials_ior" : {
                    "ior" : 1.4500000476837158
                }
            },
            "name" : "arrow_material",
            "pbrMetallicRoughness" : {
                "baseColorFactor" : [
                    0.3490196168422699,
                    0.32156863808631897,
                    1,
                    1
                ],
                "roughnessFactor" : 0.5530382990837097
            }
        }
    ],
    "meshes" : [
        {
            "name" : "Text.001",
            "primitives" : [
                {
                    "attributes" : {
                        "POSITION" : 0,
                        "TEXCOORD_0" : 1,
                        "NORMAL" : 2
                    },
                    "indices" : 3,
                    "material" : 0
                }
            ]
        },
        {
            "name" : "arrow_model-mesh.001",
            "primitives" : [
                {
                    "attributes" : {
                        "POSITION" : 4,
                        "TEXCOORD_0" : 5,
                        "NORMAL" : 6
                    },
                    "indices" : 7,
                    "material" : 1
                }
            ]
        },
        {
            "name" : "Text",
            "primitives" : [
                {
                    "attributes" : {
                        "POSITION" : 8,
                        "TEXCOORD_0" : 9,
                        "NORMAL" : 10
                    },
                    "indices" : 11,
                    "material" : 2
                }
            ]
        },
        {
            "name" : "arrow_model-mesh",
            "primitives" : [
                {
                    "attributes" : {
                        "POSITION" : 12,
                        "TEXCOORD_0" : 13,
                        "NORMAL" : 14
                    },
                    "indices" : 15,
                    "material" : 3
                }
            ]
        }
    ],
    "accessors" : [
        {
            "bufferView" : 0,
            "componentType" : 5126,
            "count" : 1266,
            "max" : [
                2.072014331817627,
                0.08999999612569809,
                -2.5941243171691895
            ],
            "min" : [
                -2.270986318588257,
                -0.08999999612569809,
                -4.294124603271484
            ],
            "type" : "VEC3"
        },
        {
            "bufferView" : 1,
            "componentType" : 5126,
            "count" : 1266,
            "type" : "VEC2"
        },
        {
            "bufferView" : 2,
            "componentType" : 5126,
            "count" : 1266,
            "type" : "VEC3"
        },
        {
            "bufferView" : 3,
            "componentType" : 5123,
            "count" : 1848,
            "type" : "SCALAR"
        },
        {
            "bufferView" : 4,
            "componentType" : 5126,
            "count" : 30,
            "max" : [
                1.4614441394805908,
                4.040634632110596,
                0.5069950819015503
            ],
            "min" : [
                -1.4785557985305786,
                0.6206345558166504,
                -0.4930049479007721
            ],
            "type" : "VEC3"
        },
        {
            "bufferView" : 5,
            "componentType" : 5126,
            "count" : 30,
            "type" : "VEC2"
        },
        {
            "bufferView" : 6,
            "componentType" : 5126,
            "count" : 30,
            "type" : "VEC3"
        },
        {
            "bufferView" : 7,
            "componentType" : 5123,
            "count" : 30,
            "type" : "SCALAR"
        },
        {
            "bufferView" : 8,
            "componentType" : 5126,
            "count" : 982,
            "max" : [
                2.072014331817627,
                0.08999999612569809,
                -2.5941243171691895
            ],
            "min" : [
                -2.270986318588257,
                -0.08999999612569809,
                -4.294124603271484
            ],
            "type" : "VEC3"
        },
        {
            "bufferView" : 9,
            "componentType" : 5126,
            "count" : 982,
            "type" : "VEC2"
        },
        {
            "bufferView" : 10,
            "componentType" : 5126,
            "count" : 982,
            "type" : "VEC3"
        },
        {
            "bufferView" : 11,
            "componentType" : 5123,
            "count" : 1848,
            "type" : "SCALAR"
        },
        {
            "bufferView" : 12,
            "componentType" : 5126,
            "count" : 28,
            "max" : [
                1.4614441394805908,
                4.040634632110596,
                0.5069950819015503
            ],
            "min" : [
                -1.4785557985305786,
                0.6206345558166504,
                -0.4930049479007721
            ],
            "type" : "VEC3"
        },
        {
            "bufferView" : 13,
            "componentType" : 5126,
            "count" : 28,
            "type" : "VEC2"
        },
        {
            "bufferView" : 14,
            "componentType" : 5126,
            "count" : 28,
            "type" : "VEC3"
        },
        {
            "bufferView" : 15,
            "componentType" : 5123,
            "count" : 30,
            "type" : "SCALAR"
        },
        {
            "bufferView" : 16,
            "componentType" : 5126,
            "count" : 100,
            "max" : [
                3.3333333333333335
            ],
            "min" : [
                0.03333333333333333
            ],
            "type" : "SCALAR"
        },
        {
            "bufferView" : 17,
            "componentType" : 5126,
            "count" : 100,
            "type" : "VEC3"
        },
        {
            "bufferView" : 18,
            "componentType" : 5126,
            "count" : 100,
            "type" : "VEC4"
        },
        {
            "bufferView" : 19,
            "componentType" : 5126,
            "count" : 100,
            "type" : "VEC3"
        },
        {
            "bufferView" : 20,
            "componentType" : 5126,
            "count" : 100,
            "type" : "VEC3"
        },
        {
            "bufferView" : 21,
            "componentType" : 5126,
            "count" : 100,
            "type" : "VEC4"
        },
        {
            "bufferView" : 22,
            "componentType" : 5126,
            "count" : 100,
            "type" : "VEC3"
        }
    ],
    "bufferViews" : [
        {
            "buffer" : 0,
            "byteLength" : 15192,
            "byteOffset" : 0,
            "target" : 34962
        },
        {
            "buffer" : 0,
            "byteLength" : 10128,
            "byteOffset" : 15192,
            "target" : 34962
        },
        {
            "buffer" : 0,
            "byteLength" : 15192,
            "byteOffset" : 25320,
            "target" : 34962
        },
        {
            "buffer" : 0,
            "byteLength" : 3696,
            "byteOffset" : 40512,
            "target" : 34963
        },
        {
            "buffer" : 0,
            "byteLength" : 360,
            "byteOffset" : 44208,
            "target" : 34962
        },
        {
            "buffer" : 0,
            "byteLength" : 240,
            "byteOffset" : 44568,
            "target" : 34962
        },
        {
            "buffer" : 0,
            "byteLength" : 360,
            "byteOffset" : 44808,
            "target" : 34962
        },
        {
            "buffer" : 0,
            "byteLength" : 60,
            "byteOffset" : 45168,
            "target" : 34963
        },
        {
            "buffer" : 0,
            "byteLength" : 11784,
            "byteOffset" : 45228,
            "target" : 34962
        },
        {
            "buffer" : 0,
            "byteLength" : 7856,
            "byteOffset" : 57012,
            "target" : 34962
        },
        {
            "buffer" : 0,
            "byteLength" : 11784,
            "byteOffset" : 64868,
            "target" : 34962
        },
        {
            "buffer" : 0,
            "byteLength" : 3696,
            "byteOffset" : 76652,
            "target" : 34963
        },
        {
            "buffer" : 0,
            "byteLength" : 336,
            "byteOffset" : 80348,
            "target" : 34962
        },
        {
            "buffer" : 0,
            "byteLength" : 224,
            "byteOffset" : 80684,
            "target" : 34962
        },
        {
            "buffer" : 0,
            "byteLength" : 336,
            "byteOffset" : 80908,
            "target" : 34962
        },
        {
            "buffer" : 0,
            "byteLength" : 60,
            "byteOffset" : 81244,
            "target" : 34963
        },
        {
            "buffer" : 0,
            "byteLength" : 400,
            "byteOffset" : 81304
        },
        {
            "buffer" : 0,
            "byteLength" : 1200,
            "byteOffset" : 81704
        },
        {
            "buffer" : 0,
            "byteLength" : 1600,
            "byteOffset" : 82904
        },
        {
            "buffer" : 0,
            "byteLength" : 1200,
            "byteOffset" : 84504
        },
        {
            "buffer" : 0,
            "byteLength" : 1200,
            "byteOffset" : 85704
        },
        {
            "buffer" : 0,
            "byteLength" : 1600,
            "byteOffset" : 86904
        },
        {
            "buffer" : 0,
            "byteLength" : 1200,
            "byteOffset" : 88504
        }
    ],
    "buffers" : [
        {
            "byteLength" : 89704,
            "uri" : "data:application/octet-stream;base64,"
        }
    ]
}
